<svg width="76" height="76" viewBox="0 0 76 76" fill="none" xmlns="http://www.w3.org/2000/svg">
<g clip-path="url(#clip0)">
<path d="M70.9333 15.2001C68.139 15.2001 65.8667 17.4725 65.8667 20.2667C65.8667 23.0609 68.1391 25.3333 70.9333 25.3333C73.7275 25.3333 75.9999 23.061 75.9999 20.2667C75.9999 17.4725 73.7275 15.2001 70.9333 15.2001ZM70.9333 22.8001C69.5362 22.8001 68.3999 21.6639 68.3999 20.2667C68.3999 18.8696 69.5361 17.7333 70.9333 17.7333C72.3306 17.7333 73.4667 18.8694 73.4667 20.2667C73.4665 21.6639 72.3304 22.8001 70.9333 22.8001Z" fill="#00ADEE"/>
<path d="M5.06662 57C2.27243 57 0 59.2724 0 62.0666C0 64.8608 2.27243 67.1332 5.06662 67.1332C7.86095 67.1332 10.1332 64.8608 10.1332 62.0666C10.1332 59.2724 7.86095 57 5.06662 57ZM5.06662 64.6C3.66952 64.6 2.53323 63.4639 2.53323 62.0666C2.53323 60.6694 3.66937 59.5332 5.06662 59.5332C6.46371 59.5332 7.6 60.6694 7.6 62.0666C7.6 63.4639 6.46386 64.6 5.06662 64.6Z" fill="#00ADEE"/>
<path d="M68.4775 16.8012L57.55 11.5256C56.9191 11.2202 56.163 11.4862 55.859 12.1159C55.555 12.7454 55.8197 13.5029 56.4493 13.8069L67.3769 19.0825C67.5542 19.1686 67.7417 19.2091 67.9265 19.2091C68.3977 19.2091 68.8499 18.9457 69.0677 18.4922C69.3717 17.8627 69.107 17.1052 68.4775 16.8012Z" fill="#00ADEE"/>
<path d="M57.0002 65.8667C54.2059 65.8667 51.9336 68.1391 51.9336 70.9333C51.9336 73.7275 54.2059 76.0001 57.0002 76.0001C59.7946 76.0001 62.0668 73.7276 62.0668 70.9334C62.0668 68.1392 59.7946 65.8667 57.0002 65.8667ZM57.0002 73.4667C55.6031 73.4667 54.4668 72.3305 54.4668 70.9333C54.4668 69.536 55.6031 68.4 57.0002 68.4C58.3973 68.4 59.5336 69.5362 59.5336 70.9334C59.5336 72.3307 58.3973 73.4667 57.0002 73.4667Z" fill="#00ADEE"/>
<path d="M54.5439 67.4678L43.6164 62.1921C42.9855 61.8868 42.2294 62.1516 41.9254 62.7825C41.6214 63.412 41.8861 64.1695 42.5157 64.4735L53.4433 69.7491C53.6206 69.8352 53.8081 69.8757 53.9929 69.8757C54.4641 69.8757 54.9164 69.6122 55.1343 69.1588C55.4381 68.5291 55.1735 67.7718 54.5439 67.4678Z" fill="#00ADEE"/>
<path d="M38.0002 34.2001C35.2059 34.2001 32.9336 36.4725 32.9336 39.2667C32.9336 42.061 35.206 44.3333 38.0002 44.3333C40.7945 44.3333 43.0668 42.0609 43.0668 39.2667C43.0668 36.4725 40.7945 34.2001 38.0002 34.2001ZM38.0002 41.8001C36.6031 41.8001 35.4668 40.6639 35.4668 39.2667C35.4668 37.8696 36.603 36.7333 38.0002 36.7333C39.3973 36.7333 40.5336 37.8694 40.5336 39.2667C40.5336 40.6639 39.3973 41.8001 38.0002 41.8001Z" fill="#00ADEE"/>
<path d="M35.7731 35.943L27.379 29.4006C26.8267 28.9737 26.0313 29.0687 25.6006 29.621C25.1711 30.1734 25.2687 30.9687 25.821 31.3995L34.2151 37.9419C34.447 38.1218 34.7206 38.2092 34.993 38.2092C35.3704 38.2092 35.7429 38.042 35.9936 37.7216C36.423 37.1691 36.3255 36.3736 35.7731 35.943Z" fill="#00ADEE"/>
<path d="M60.8001 32.9333C53.1177 32.9333 46.8667 39.1843 46.8667 46.8667C46.8667 54.5491 53.1177 60.8001 60.8001 60.8001C68.4825 60.8001 74.7335 54.5491 74.7335 46.8667C74.7335 39.1843 68.4825 32.9333 60.8001 32.9333ZM60.8001 58.2665C54.5136 58.2665 49.4001 53.153 49.4001 46.8665C49.4001 40.58 54.5136 35.4665 60.8001 35.4665C67.0866 35.4665 72.2001 40.58 72.2001 46.8665C72.2001 53.153 67.0866 58.2665 60.8001 58.2665Z" fill="#00ADEE"/>
<path d="M60.8 38C58.0057 38 55.7334 40.2724 55.7334 43.0666C55.7334 45.861 58.0058 48.1332 60.8 48.1332C63.5944 48.1332 65.8666 45.8608 65.8666 43.0666C65.8666 40.2724 63.5944 38 60.8 38ZM60.8 45.6C59.4029 45.6 58.2666 44.4639 58.2666 43.0666C58.2666 41.6695 59.4028 40.5332 60.8 40.5332C62.1971 40.5332 63.3334 41.6694 63.3334 43.0666C63.3334 44.4639 62.1971 45.6 60.8 45.6Z" fill="#00ADEE"/>
<path d="M64.4748 50.6666H57.1256C54.961 50.6666 53.2002 52.3805 53.2002 54.4856V57.8245C53.2002 58.2767 53.4408 58.6947 53.8322 58.9215C55.9552 60.1501 58.3643 60.8 60.8002 60.8C63.2361 60.8 65.6452 60.1501 67.7681 58.9215C68.1596 58.696 68.4002 58.2767 68.4002 57.8259V54.4869C68.4002 52.3805 66.6396 50.6666 64.4748 50.6666ZM65.8668 57.0696C62.7141 58.6402 58.8862 58.6402 55.7334 57.0696V54.4869C55.7334 53.7775 56.3579 53.2 57.1255 53.2H64.4746C65.2422 53.2 65.8667 53.7775 65.8667 54.4869V57.0696H65.8668Z" fill="#00ADEE"/>
<path d="M30.4002 48.1333C22.7178 48.1333 16.4668 54.3843 16.4668 62.0667C16.4668 69.7491 22.7178 75.9999 30.4002 75.9999C38.0826 75.9999 44.3336 69.7489 44.3336 62.0666C44.3336 54.3842 38.0826 48.1333 30.4002 48.1333ZM30.4002 73.4666C24.1137 73.4666 19.0002 68.353 19.0002 62.0666C19.0002 55.7801 24.1137 50.6666 30.4002 50.6666C36.6867 50.6666 41.8002 55.7801 41.8002 62.0666C41.8002 68.353 36.6867 73.4666 30.4002 73.4666Z" fill="#00ADEE"/>
<path d="M30.4001 53.2001C27.6058 53.2001 25.3335 55.4725 25.3335 58.2667C25.3335 61.061 27.6059 63.3333 30.4001 63.3333C33.1943 63.3333 35.4667 61.0609 35.4667 58.2667C35.4667 55.4725 33.1944 53.2001 30.4001 53.2001ZM30.4001 60.8001C29.003 60.8001 27.8667 59.6639 27.8667 58.2667C27.8667 56.8696 29.0029 55.7333 30.4001 55.7333C31.7972 55.7333 32.9335 56.8694 32.9335 58.2667C32.9335 59.6639 31.7972 60.8001 30.4001 60.8001Z" fill="#00ADEE"/>
<path d="M34.0744 65.8667H26.7252C24.5606 65.8667 22.7998 67.5805 22.7998 69.6857V73.0246C22.7998 73.4768 23.0404 73.8948 23.4319 74.1216C25.5548 75.3502 27.9639 76.0001 30.3998 76.0001C32.8357 76.0001 35.2448 75.3502 37.3678 74.1216C37.7592 73.8961 37.9998 73.4769 37.9998 73.026V69.687C37.9998 67.5805 36.2392 65.8667 34.0744 65.8667ZM35.4664 72.2697C32.3136 73.8403 28.4859 73.8403 25.333 72.2697V69.687C25.333 68.9776 25.9575 68.4 26.7251 68.4H34.0742C34.8418 68.4 35.4663 68.9776 35.4663 69.687V72.2697H35.4664Z" fill="#00ADEE"/>
<path d="M13.9334 16.4665C6.251 16.4665 0 22.7175 0 30.3999C0 38.0823 6.251 44.3333 13.9334 44.3333C21.6158 44.3333 27.8668 38.0823 27.8668 30.3999C27.8666 22.7175 21.6156 16.4665 13.9334 16.4665ZM13.9334 41.7999C7.64691 41.7999 2.53338 36.6863 2.53338 30.3999C2.53338 24.1134 7.64691 18.9999 13.9334 18.9999C20.2199 18.9999 25.3334 24.1134 25.3334 30.3999C25.3334 36.6863 20.2199 41.7999 13.9334 41.7999Z" fill="#00ADEE"/>
<path d="M13.9333 21.5335C11.139 21.5335 8.8667 23.8059 8.8667 26.6001C8.8667 29.3943 11.1391 31.6667 13.9333 31.6667C16.7277 31.6667 18.9999 29.3943 18.9999 26.6001C18.9999 23.8059 16.7275 21.5335 13.9333 21.5335ZM13.9333 29.1335C12.5362 29.1335 11.3999 27.9974 11.3999 26.6001C11.3999 25.2029 12.5361 24.0667 13.9333 24.0667C15.3304 24.0667 16.4667 25.2029 16.4667 26.6001C16.4667 27.9974 15.3304 29.1335 13.9333 29.1335Z" fill="#00ADEE"/>
<path d="M17.6081 34.2001H10.2589C8.09426 34.2001 6.3335 35.9139 6.3335 38.0191V41.358C6.3335 41.8102 6.57411 42.2282 6.96554 42.455C9.0885 43.6836 11.4976 44.3335 13.9335 44.3335C16.3694 44.3335 18.7785 43.6836 20.9015 42.455C21.2929 42.2295 21.5335 41.8102 21.5335 41.3594V38.0204C21.5335 35.9139 19.7727 34.2001 17.6081 34.2001ZM19.0001 40.6031C15.8475 42.1737 12.0195 42.1737 8.86673 40.6031V38.0204C8.86673 37.311 9.49121 36.7335 10.2588 36.7335H17.6079C18.3755 36.7335 19 37.311 19 38.0204V40.6031H19.0001Z" fill="#00ADEE"/>
<path d="M44.3333 0C36.6509 0 30.3999 6.251 30.3999 13.9334C30.3999 21.6158 36.6509 27.8668 44.3333 27.8668C52.0157 27.8668 58.2667 21.6158 58.2667 13.9334C58.2665 6.251 52.0155 0 44.3333 0ZM44.3333 25.3334C38.0468 25.3334 32.9333 20.2199 32.9333 13.9334C32.9333 7.64691 38.0468 2.53338 44.3333 2.53338C50.6198 2.53338 55.7333 7.64691 55.7333 13.9334C55.7333 20.2199 50.6198 25.3334 44.3333 25.3334Z" fill="#00ADEE"/>
<path d="M44.3332 5.06674C41.5389 5.06674 39.2666 7.33917 39.2666 10.1334C39.2666 12.9275 41.539 15.2 44.3332 15.2C47.1274 15.2 49.3998 12.9277 49.3998 10.1335C49.3998 7.33932 47.1274 5.06674 44.3332 5.06674ZM44.3332 12.6667C42.9361 12.6667 41.7998 11.5306 41.7998 10.1334C41.7998 8.73626 42.936 7.59998 44.3332 7.59998C45.7305 7.59998 46.8666 8.73612 46.8666 10.1334C46.8665 11.5306 45.7303 12.6667 44.3332 12.6667Z" fill="#00ADEE"/>
<path d="M48.008 17.7336H40.6588C38.4942 17.7336 36.7334 19.4474 36.7334 21.5526V24.8915C36.7334 25.3437 36.974 25.7617 37.3654 25.9885C39.4884 27.2171 41.8975 27.867 44.3334 27.867C46.7693 27.867 49.1784 27.2171 51.3013 25.9885C51.6928 25.763 51.9334 25.3437 51.9334 24.8929V21.5539C51.9334 19.4473 50.1726 17.7336 48.008 17.7336ZM49.4 24.1366C46.2473 25.7072 42.4194 25.7072 39.2666 24.1366V21.5539C39.2666 20.8445 39.8911 20.267 40.6587 20.267H48.0078C48.7754 20.267 49.3999 20.8445 49.3999 21.5539V24.1366H49.4Z" fill="#00ADEE"/>
<path d="M32.6306 13.1086C32.1759 12.5791 31.3766 12.5157 30.8446 12.9705L22.0666 20.4819C21.5346 20.9366 21.4725 21.7359 21.9272 22.2679C22.1781 22.5605 22.5327 22.7113 22.8898 22.7113C23.1812 22.7113 23.4738 22.6113 23.7132 22.406L32.4912 14.8946C33.0234 14.4399 33.0854 13.6406 32.6306 13.1086Z" fill="#00ADEE"/>
<path d="M60.5465 33.4413L52.9465 23.3079C52.5272 22.7468 51.733 22.6365 51.1731 23.0545C50.6132 23.4739 50.5005 24.268 50.9197 24.8266L58.5197 34.96C58.7693 35.2919 59.1493 35.4666 59.5343 35.4666C59.7978 35.4666 60.0651 35.3842 60.2931 35.2132C60.853 34.794 60.9658 33.9999 60.5465 33.4413Z" fill="#00ADEE"/>
<path d="M50.151 51.0556C49.7316 50.4957 48.9375 50.383 48.3776 50.8022L41.302 56.1082C40.7421 56.5276 40.6295 57.3217 41.0486 57.8803C41.2982 58.2122 41.6782 58.3869 42.0632 58.3869C42.3279 58.3869 42.5939 58.3033 42.822 58.1335L49.8976 52.8275C50.4575 52.4084 50.5703 51.6141 50.151 51.0556Z" fill="#00ADEE"/>
<path d="M17.7335 60.7999H8.86672C8.16757 60.7999 7.6001 61.3661 7.6001 62.0665C7.6001 62.767 8.16757 63.3332 8.86672 63.3332H17.7333C18.4325 63.3332 19 62.767 19 62.0665C19 61.3661 18.4326 60.7999 17.7335 60.7999Z" fill="#00ADEE"/>
<path d="M13.9335 0C11.1391 0 8.8667 2.27243 8.8667 5.06662C8.8667 7.86095 11.1391 10.1332 13.9333 10.1332C16.7277 10.1332 18.9999 7.8608 18.9999 5.06662C19.0001 2.27243 16.7277 0 13.9335 0ZM13.9335 7.6C12.5364 7.6 11.4001 6.46386 11.4001 5.06662C11.4001 3.66952 12.5362 2.53323 13.9335 2.53323C15.3306 2.53323 16.4668 3.66937 16.4668 5.06662C16.4667 6.46386 15.3306 7.6 13.9335 7.6Z" fill="#00ADEE"/>
<path d="M13.9336 7.59985C13.2345 7.59985 12.667 8.16599 12.667 8.86647V17.7331C12.667 18.4336 13.2345 18.9997 13.9336 18.9997C14.6327 18.9997 15.2002 18.4336 15.2002 17.7331V8.86647C15.2002 8.16599 14.6327 7.59985 13.9336 7.59985Z" fill="#00ADEE"/>
</g>
<defs>
<clipPath id="clip0">
<rect width="76" height="76" fill="white"/>
</clipPath>
</defs>
</svg>
