<svg width="72" height="72" viewBox="0 0 72 72" fill="none" xmlns="http://www.w3.org/2000/svg">
<path d="M69.8906 0H61.4531C60.2882 0 59.3438 0.944437 59.3438 2.10938V4.21875H41.9653C41.0946 1.76372 38.7499 0 36 0C33.2501 0 30.9054 1.76372 30.0347 4.21875H12.6562V2.10938C12.6562 0.944437 11.7118 0 10.5469 0H2.10938C0.944437 0 0 0.944437 0 2.10938V10.5469C0 11.7118 0.944437 12.6562 2.10938 12.6562H10.5469C11.7118 12.6562 12.6562 11.7118 12.6562 10.5469V8.40938H21.428C13.818 13.2292 9.19195 21.3715 8.6355 30.0153C6.15066 30.8697 4.35938 33.2288 4.35938 36C4.35938 39.4893 7.19817 42.3281 10.6875 42.3281C14.1768 42.3281 17.0156 39.4893 17.0156 36C17.0156 33.2747 15.2838 30.9462 12.863 30.0572C13.6119 20.1225 20.7658 11.5658 30.3323 9.13809C31.3692 11.221 33.5195 12.6562 36 12.6562C38.4805 12.6562 40.6308 11.221 41.6677 9.13824C51.2343 11.566 58.3881 20.1226 59.137 30.0573C56.7162 30.9462 54.9844 33.2747 54.9844 36C54.9844 39.4893 57.8232 42.3281 61.3125 42.3281C64.8018 42.3281 67.6406 39.4893 67.6406 36C67.6406 33.2288 65.8493 30.8697 63.3645 30.0153C62.8069 21.3542 58.1671 13.2479 50.572 8.4375H59.3438V10.5469C59.3438 11.7118 60.2882 12.6562 61.4531 12.6562H69.8906C71.0556 12.6562 72 11.7118 72 10.5469V2.10938C72 0.944437 71.0556 0 69.8906 0ZM8.4375 8.4375H4.21875V4.21875H8.4375V8.4375ZM10.6875 38.1094C9.52439 38.1094 8.57812 37.1631 8.57812 36C8.57812 34.8369 9.52439 33.8906 10.6875 33.8906C11.8506 33.8906 12.7969 34.8369 12.7969 36C12.7969 37.1631 11.8506 38.1094 10.6875 38.1094ZM36 8.4375C34.8369 8.4375 33.8906 7.49123 33.8906 6.32812C33.8906 5.16502 34.8369 4.21875 36 4.21875C37.1631 4.21875 38.1094 5.16502 38.1094 6.32812C38.1094 7.49123 37.1631 8.4375 36 8.4375ZM61.3125 33.8906C62.4756 33.8906 63.4219 34.8369 63.4219 36C63.4219 37.1631 62.4756 38.1094 61.3125 38.1094C60.1494 38.1094 59.2031 37.1631 59.2031 36C59.2031 34.8369 60.1494 33.8906 61.3125 33.8906ZM67.7812 8.4375H63.5625V4.21875H67.7812V8.4375Z" fill="#00ADEE"/>
<path d="M54.63 43.2673L37.755 17.955C37.7544 17.9541 37.7537 17.9533 37.7532 17.9523C37.7471 17.9433 37.7405 17.9347 37.7343 17.9259C37.7053 17.8838 37.6748 17.8433 37.643 17.8038C36.7542 16.6993 35.0616 16.7739 34.2657 17.9259C34.2595 17.9347 34.2529 17.9433 34.2468 17.9523C34.2463 17.9533 34.2455 17.954 34.245 17.955L17.37 43.2675C16.8121 44.1041 16.9225 45.2181 17.6335 45.9291C21.842 50.1376 24.5206 55.6388 25.2503 61.5245C24.9228 61.7893 24.6065 62.0728 24.3067 62.3797C22.3255 64.4064 21.2344 67.0739 21.2344 69.8906C21.2344 71.0555 22.1788 72 23.3437 72H48.6562C49.8212 72 50.7656 71.0555 50.7656 69.8906C50.7656 67.0739 49.6745 64.4064 47.6934 62.3795C47.3934 62.0727 47.0773 61.7892 46.7496 61.5244C47.4792 55.6384 50.1578 50.1371 54.3663 45.9291C55.0775 45.2181 55.1878 44.1039 54.63 43.2673ZM36 42.3281C37.1631 42.3281 38.1094 43.2744 38.1094 44.4375C38.1094 45.6006 37.1631 46.5469 36 46.5469C34.8369 46.5469 33.8906 45.6006 33.8906 44.4375C33.8906 43.2744 34.8369 42.3281 36 42.3281ZM25.8128 67.7812C26.6905 65.2735 29.0696 63.4219 31.7812 63.4219H40.2187C42.9304 63.4219 45.3095 65.2735 46.1871 67.7812H25.8128ZM42.7844 59.5242C41.9547 59.3124 41.0947 59.2031 40.2187 59.2031H31.7812C30.9053 59.2031 30.0452 59.3124 29.2155 59.5243C28.2283 53.839 25.6646 48.5245 21.8116 44.2104L33.8906 26.0918V38.4723C31.4354 39.3431 29.6719 41.6877 29.6719 44.4376C29.6719 47.9269 32.5107 50.7657 36 50.7657C39.4893 50.7657 42.3281 47.9269 42.3281 44.4376C42.3281 41.6877 40.5645 39.3431 38.1094 38.4723V26.0918L50.1885 44.2104C46.3354 48.524 43.7715 53.8387 42.7844 59.5242Z" fill="#00ADEE"/>
</svg>
