<svg width="68" height="68" viewBox="0 0 68 68" fill="none" xmlns="http://www.w3.org/2000/svg">
<path d="M67.3044 32.2508L51.5793 15.5907C50.6129 14.5657 48.9996 14.5189 47.9745 15.4862C46.9511 16.4527 46.9035 18.0668 47.8708 19.091L61.9444 34.0001L47.8708 48.9109C46.9035 49.9352 46.9511 51.5485 47.9745 52.5158C48.4675 52.9807 49.0973 53.211 49.7247 53.211C50.4022 53.211 51.0788 52.9425 51.5795 52.4128L67.3046 35.7519C68.2317 34.7686 68.2317 33.2334 67.3044 32.2508Z" fill="#00ADEE"/>
<path d="M20.1299 48.9101L6.05728 34.0001L20.1299 19.0902C21.0964 18.0659 21.0496 16.4517 20.0254 15.4854C19.0019 14.5189 17.3869 14.5656 16.4206 15.5899L0.695477 32.25C-0.231826 33.2326 -0.231826 34.7685 0.695477 35.7512L16.4214 52.4121C16.9229 52.9434 17.5986 53.2111 18.2761 53.2111C18.9034 53.2111 19.5333 52.9799 20.0254 52.5149C21.0506 51.5484 21.0964 49.9344 20.1299 48.9101Z" fill="#00ADEE"/>
<path d="M38.1255 6.99886C36.7341 6.78809 35.4318 7.74341 35.2193 9.1349L27.7393 58.0952C27.5268 59.4875 28.483 60.7889 29.8753 61.0014C30.0063 61.0209 30.1354 61.0304 30.2638 61.0304C31.5023 61.0304 32.5886 60.1268 32.7815 58.8654L40.2616 9.90508C40.4741 8.51267 39.5178 7.21136 38.1255 6.99886Z" fill="#00ADEE"/>
</svg>
