<svg width="74" height="88" viewBox="0 0 74 88" fill="none" xmlns="http://www.w3.org/2000/svg">
<path d="M37.0668 18.9678C24.6117 18.9678 14.4359 29.1435 14.4359 41.5987C14.4359 48.1112 17.2851 54.3794 22.0881 58.6125C25.67 62.1944 25.3443 69.8466 25.2629 69.928C25.2629 70.335 25.3443 70.6607 25.67 70.9863C25.9142 71.2305 26.3212 71.3933 26.6468 71.3933H47.4054C47.8124 71.3933 48.138 71.2305 48.3823 70.9863C48.6265 70.7421 48.7893 70.335 48.7893 69.928C48.7893 69.8466 48.3823 62.1944 51.9641 58.6125C52.0455 58.5311 52.1269 58.4497 52.2083 58.3683C56.9299 54.0538 59.6977 47.9483 59.6977 41.5987C59.6977 29.1435 49.5219 18.9678 37.0668 18.9678ZM50.0918 56.496C50.0104 56.5774 49.8476 56.7402 49.8476 56.8216C46.6727 60.2407 46.1029 65.8577 46.0215 68.5441H28.0307C27.9493 65.8577 27.3795 59.9965 23.9604 56.496C19.6459 52.7513 17.1223 47.2971 17.1223 41.5173C17.1223 30.5274 25.9956 21.6542 36.9854 21.6542C47.9752 21.6542 56.8485 30.5274 56.8485 41.5173C56.8485 47.2971 54.4063 52.7513 50.0918 56.496Z" fill="#00ADEE"/>
<path d="M36.9855 24.7476C36.2528 24.7476 35.6016 25.3988 35.6016 26.1315C35.6016 26.8641 36.2528 27.5154 36.9855 27.5154C45.2075 27.5154 51.8014 34.1907 51.8014 42.3313C51.8014 43.0639 52.4526 43.7152 53.1853 43.7152C53.9179 43.7152 54.5692 43.0639 54.5692 42.3313C54.6506 32.644 46.7542 24.7476 36.9855 24.7476Z" fill="#00ADEE"/>
<path d="M46.0216 72.9399H27.9495C26.0771 72.9399 24.5304 74.4867 24.5304 76.359C24.5304 78.2313 26.0771 79.778 27.9495 79.778H45.9402C47.8939 79.6966 49.4407 78.2313 49.4407 76.359C49.4407 74.4867 47.8939 72.9399 46.0216 72.9399ZM46.0216 76.9288H27.9495C27.6238 76.9288 27.2982 76.6846 27.2982 76.2776C27.2982 75.8706 27.5424 75.6263 27.9495 75.6263H45.9402C46.2658 75.6263 46.5914 75.8706 46.5914 76.2776C46.5914 76.6846 46.3472 76.9288 46.0216 76.9288Z" fill="#00ADEE"/>
<path d="M43.3351 81.1619H30.6357C28.7634 81.1619 27.2167 82.7086 27.2167 84.5809C27.2167 86.4533 28.7634 88 30.6357 88H43.3351C45.2074 88 46.7541 86.4533 46.7541 84.5809C46.7541 82.6272 45.2074 81.1619 43.3351 81.1619ZM43.3351 85.1508H30.6357C30.3101 85.1508 29.9845 84.9065 29.9845 84.4995C29.9845 84.0925 30.2287 83.8483 30.6357 83.8483H43.3351C43.6607 83.8483 43.9863 84.0925 43.9863 84.4995C43.9863 84.9065 43.6607 85.1508 43.3351 85.1508Z" fill="#00ADEE"/>
<path d="M36.9855 12.2109C37.7995 12.2109 38.3694 11.5597 38.3694 10.827V1.3839C38.3694 0.651249 37.7181 0 36.9855 0C36.2528 0 35.6016 0.651249 35.6016 1.3839V10.827C35.6016 11.5597 36.2528 12.2109 36.9855 12.2109Z" fill="#00ADEE"/>
<path d="M60.0234 7.0009C59.3722 6.51246 58.5581 6.75668 58.1511 7.32652L52.9411 15.1415C52.4527 15.7928 52.6155 16.6882 53.2667 17.0953C53.5109 17.2581 53.7552 17.3395 53.9994 17.3395C54.4878 17.3395 54.8948 17.0953 55.1391 16.6882L60.349 8.87324C60.8375 8.3034 60.6747 7.40793 60.0234 7.0009Z" fill="#00ADEE"/>
<path d="M20.4602 17.0138C20.7044 17.0138 20.9486 16.9324 21.1928 16.7696C21.8441 16.3626 22.0069 15.4671 21.5998 14.8159L16.5527 6.91947C16.1456 6.26822 15.2502 6.10541 14.5989 6.51244C13.9477 6.91947 13.7849 7.81493 14.1919 8.46618L19.2391 16.3626C19.5647 16.851 19.9717 17.0138 20.4602 17.0138Z" fill="#00ADEE"/>
<path d="M10.6099 25.6429L2.38788 21.1656C1.73663 20.84 0.841163 21.0842 0.515538 21.7354C0.108508 22.3867 0.352726 23.2821 1.08538 23.6078L9.3074 28.0851C9.55162 28.1665 9.71443 28.2479 9.95865 28.2479C10.4471 28.2479 10.9355 28.0037 11.1797 27.5153C11.5054 26.864 11.2611 25.9685 10.6099 25.6429Z" fill="#00ADEE"/>
<path d="M73.5368 21.7354C73.2112 21.0842 72.3157 20.84 71.6645 21.1656L63.361 25.6429C62.7098 25.9685 62.4656 26.864 62.7912 27.5153C63.0354 28.0037 63.5238 28.2479 64.0123 28.2479C64.2565 28.2479 64.5007 28.1665 64.6635 28.0851L72.9669 23.6078C73.6182 23.2821 73.8624 22.3867 73.5368 21.7354Z" fill="#00ADEE"/>
</svg>
